<svg width="76" height="69" viewBox="0 0 76 69" fill="none" xmlns="http://www.w3.org/2000/svg">
<g filter="url(#filter0_d_2005_15)">
<path d="M49.8368 15.4566L49.8671 15.4568M11.4101 48.5269L37.4766 48.7116C43.9075 48.7571 50.0932 46.2462 54.6728 41.731C59.2524 37.2159 61.8507 31.0664 61.8963 24.6354L61.9607 15.5425M61.9607 15.5425C61.9858 12.9599 61.1856 10.4367 59.6765 8.34065C58.1675 6.24461 56.0285 4.68522 53.5713 3.88973C51.1142 3.09423 48.4671 3.10419 46.016 3.91815C43.5649 4.73212 41.4377 6.30755 39.9445 8.41489L7.12376 54.5588M61.9607 15.5425L68.012 17.1009L61.9392 18.5735M31.4146 48.6686L31.3502 57.7616M43.5439 47.9968L43.4742 57.8475M22.3217 48.6042C26.0592 48.6305 29.7141 47.5046 32.789 45.3796C35.8638 43.2547 38.2093 40.2339 39.5061 36.7285C40.803 33.223 40.9883 29.4031 40.0368 25.7886C39.0853 22.174 37.0432 18.9405 34.1885 16.5279" stroke="#00BCFF" stroke-width="6" stroke-linecap="round" stroke-linejoin="round" shape-rendering="crispEdges"/>
</g>
<defs>
<filter id="filter0_d_2005_15" x="0.123535" y="0.300781" width="74.8884" height="68.5469" filterUnits="userSpaceOnUse" color-interpolation-filters="sRGB">
<feFlood flood-opacity="0" result="BackgroundImageFix"/>
<feColorMatrix in="SourceAlpha" type="matrix" values="0 0 0 0 0 0 0 0 0 0 0 0 0 0 0 0 0 0 127 0" result="hardAlpha"/>
<feOffset dy="4"/>
<feGaussianBlur stdDeviation="2"/>
<feComposite in2="hardAlpha" operator="out"/>
<feColorMatrix type="matrix" values="0 0 0 0 0 0 0 0 0 0 0 0 0 0 0 0 0 0 0.25 0"/>
<feBlend mode="normal" in2="BackgroundImageFix" result="effect1_dropShadow_2005_15"/>
<feBlend mode="normal" in="SourceGraphic" in2="effect1_dropShadow_2005_15" result="shape"/>
</filter>
</defs>
</svg>
